<svg width="167" height="25" viewBox="0 0 167 25" fill="none" xmlns="http://www.w3.org/2000/svg">
<path d="M16.254 8.05663V4.16699H4.49609V20.8329H16.254V16.9433H9.39292V14.2611H15.8256V10.7499H9.39292V8.05663H16.254Z" fill="white"/>
<path d="M37.4049 4.16699H31.7457C30.4937 6.54863 29.2473 8.93027 27.9952 11.3175C26.7321 8.93583 25.4689 6.55419 24.2002 4.16699H18.541V20.8329H21.6683C21.6683 20.7995 21.6739 20.7661 21.6739 20.7272C21.7852 19.4028 22.286 18.2287 23.154 17.2048L23.3878 16.9766C23.3878 16.9766 23.2153 16.5816 22.9871 16.0585C22.8647 15.7747 22.7534 15.5132 22.6644 15.3128C22.592 15.1459 22.4418 15.1014 22.286 15.2015C22.2136 15.2516 22.1469 15.3073 22.0801 15.3685C21.8185 15.6133 21.5069 15.669 21.1619 15.6133C20.9282 15.5744 20.7724 15.4241 20.6611 15.2349C20.4831 14.9233 20.4831 14.595 20.5832 14.2667C20.7056 13.866 20.9449 13.5266 21.2231 13.215C21.5236 12.8811 21.8575 12.5806 22.2637 12.3636C22.3027 12.3413 22.3416 12.3247 22.3806 12.3024C22.6032 12.1522 22.8146 12.2078 23.0149 12.3469C23.232 12.5027 23.4156 12.6919 23.5881 12.8978C23.922 13.304 24.9013 14.8788 24.957 14.9845C25.046 15.1626 25.2908 15.5911 25.2908 15.5911L25.3743 15.5465C25.3743 15.5465 26.0365 15.285 26.3815 15.1904C26.4427 15.1737 26.4928 15.1403 26.5317 15.0958C26.9992 14.5449 27.5222 14.0552 28.1399 13.6657C28.2122 13.6212 28.4014 13.4988 28.4014 13.4988C28.4014 13.4988 28.3013 13.7047 28.2679 14.0886C28.2456 14.3891 28.2846 14.5894 28.2901 14.5839C28.2957 14.5783 28.3347 14.556 28.3625 14.5394C28.5739 14.4169 28.8577 14.3557 29.0914 14.3223C29.1248 14.3168 29.3029 14.2778 29.3029 14.2778C29.3029 14.2778 29.186 14.3947 29.1693 14.4225C29.0692 14.5672 28.9913 14.723 28.9356 14.8899C28.9245 14.9289 28.9134 14.9678 28.9023 15.0068C28.9023 15.0068 30.0819 15.324 30.3991 15.4965C30.3991 15.4965 31.1114 14.2277 31.1503 14.161C31.3507 13.816 31.5955 13.5043 31.9016 13.2372C32.0963 13.0703 32.3078 12.9479 32.5804 12.9757C32.6806 12.9868 32.7752 13.0202 32.8698 13.0536C33.7323 13.3875 34.2999 14.0107 34.6171 14.851C34.7339 15.1626 34.7339 15.4965 34.5781 15.8136C34.4446 16.0919 34.2275 16.2588 33.8992 16.2699C33.6266 16.2811 33.3817 16.2254 33.1703 16.0418C33.1091 15.9861 33.0423 15.9361 32.9811 15.8804C32.9366 15.8415 32.8865 15.8081 32.8197 15.7969C32.6806 15.7747 32.6249 15.7969 32.5637 15.9194C32.5192 16.0084 32.4747 16.0974 32.4358 16.1865C32.3912 16.2922 32.3467 16.3979 32.3078 16.5037C32.2688 16.6038 32.2744 16.665 32.3578 16.7429C32.8865 17.227 33.3094 17.7891 33.6377 18.4179C33.9271 18.9743 34.1163 19.5586 34.2275 20.1707C34.2665 20.3877 34.2888 20.6047 34.2999 20.8218C35.3405 20.8218 36.3755 20.8218 37.416 20.8218V4.16699H37.4049Z" fill="white"/>
<path d="M51.8229 5.8143C50.6877 4.71251 49.1908 4.16162 47.3267 4.16162H39.7144V20.8275H44.6223V16.2757H46.9984C48.9515 16.2757 50.5319 15.7248 51.7338 14.623C52.9358 13.5212 53.5368 12.0577 53.5368 10.2326C53.5312 8.3907 52.958 6.91608 51.8229 5.8143ZM47.8998 12.0466C47.4435 12.4584 46.8036 12.6643 45.9856 12.6643H44.6112V7.85093H46.019C46.8259 7.85093 47.4547 8.05682 47.9054 8.4686C48.3561 8.88038 48.5787 9.47579 48.5787 10.2548C48.5843 11.0283 48.3561 11.6348 47.8998 12.0466Z" fill="white"/>
<path d="M66.708 14.5116C67.5539 14.1054 68.2439 13.4376 68.689 12.6141C69.1565 11.7627 69.4013 10.8 69.3902 9.82621C69.3902 8.02329 68.817 6.63214 67.6763 5.64165C66.5355 4.65116 64.8606 4.16147 62.6626 4.16704H55.2617V20.8329H60.1585V15.2461H61.7611L64.3988 20.8385H69.8687L66.708 14.5116ZM63.8033 11.4288C63.4083 11.8183 62.8685 12.0075 62.1785 12.0075H60.153V7.78401H62.1896C62.7795 7.75619 63.3526 7.97321 63.7811 8.37386C64.1873 8.7745 64.4099 9.33096 64.3932 9.90411C64.4266 10.4773 64.2096 11.0282 63.8033 11.4288Z" fill="white"/>
<path d="M83.129 8.05663V4.16699H71.3711V20.8329H83.129V16.9433H76.2735V14.2611H82.7061V10.7499H76.2735V8.05663H83.129Z" fill="white"/>
<path d="M97.174 8.05663V4.16699H85.416V20.8329H97.174V16.9433H90.3128V14.2611H96.7455V10.7499H90.3128V8.05663H97.174Z" fill="white"/>
<path d="M109.789 4.16699V12.8088H109.694L103.262 4.16699H99.4609V20.8329H104.08V12.052H104.169L110.646 20.8329H114.402V4.16699H109.789Z" fill="white"/>
<path d="M129.771 6.28709C128.369 4.87369 126.394 4.16699 123.839 4.16699H116.717V20.8329H123.839C126.366 20.8329 128.336 20.0928 129.749 18.6071C131.162 17.1213 131.869 15.0457 131.869 12.3803C131.875 9.726 131.174 7.69493 129.771 6.28709ZM123.155 16.9377H121.625V8.05663H123.161C124.346 8.05663 125.264 8.42389 125.915 9.16398C126.566 9.90407 126.894 10.9725 126.889 12.3692C126.889 15.413 125.642 16.9377 123.155 16.9377Z" fill="white"/>
<path d="M145.536 8.05663V4.16699H133.778V20.8329H145.536V16.9433H138.68V14.2611H145.113V10.7499H138.68V8.05663H145.536Z" fill="white"/>
<path d="M159.275 14.5117C160.12 14.1055 160.816 13.4378 161.256 12.6142C161.729 11.7628 161.973 10.8002 161.962 9.82079C161.962 8.01787 161.389 6.62673 160.248 5.63623C159.108 4.64574 157.433 4.16162 155.229 4.16162H147.823V20.8275H152.72V15.2462H154.328L156.96 20.8386H162.435L159.275 14.5117ZM156.37 11.429C155.975 11.8185 155.435 12.0077 154.745 12.0077H152.72V7.78416H154.756C155.346 7.75633 155.919 7.97335 156.348 8.374C156.759 8.77465 156.982 9.33111 156.96 9.90426C156.988 10.4774 156.771 11.0283 156.37 11.429Z" fill="white"/>
</svg>
